<mxfile host="Electron" agent="Mozilla/5.0 (Windows NT 10.0; Win64; x64) AppleWebKit/537.36 (KHTML, like Gecko) draw.io/28.1.2 Chrome/138.0.7204.243 Electron/37.4.0 Safari/537.36" version="28.1.2">
  <diagram id="HbzJx50tmoRLq2kqnxUv" name="Seite-1">
    <mxGraphModel dx="576" dy="475" grid="1" gridSize="10" guides="1" tooltips="1" connect="1" arrows="1" fold="1" page="1" pageScale="1" pageWidth="827" pageHeight="1169" math="0" shadow="0">
      <root>
        <mxCell id="0" />
        <mxCell id="1" parent="0" />
        <mxCell id="wUSlcCE9hOFSW_zbZ7NI-1" value="Hello Meister!" style="text;html=1;align=center;verticalAlign=middle;whiteSpace=wrap;rounded=0;fontStyle=1;fontSize=36;" vertex="1" parent="1">
          <mxGeometry x="20" y="20" width="380" height="30" as="geometry" />
        </mxCell>
        <mxCell id="wUSlcCE9hOFSW_zbZ7NI-6" value="" style="edgeStyle=orthogonalEdgeStyle;rounded=0;orthogonalLoop=1;jettySize=auto;html=1;" edge="1" parent="1" source="wUSlcCE9hOFSW_zbZ7NI-2" target="wUSlcCE9hOFSW_zbZ7NI-5">
          <mxGeometry relative="1" as="geometry" />
        </mxCell>
        <mxCell id="wUSlcCE9hOFSW_zbZ7NI-2" value="start" style="ellipse;whiteSpace=wrap;html=1;" vertex="1" parent="1">
          <mxGeometry x="170" y="160" width="120" height="80" as="geometry" />
        </mxCell>
        <mxCell id="wUSlcCE9hOFSW_zbZ7NI-8" value="" style="edgeStyle=orthogonalEdgeStyle;rounded=0;orthogonalLoop=1;jettySize=auto;html=1;" edge="1" parent="1" source="wUSlcCE9hOFSW_zbZ7NI-5" target="wUSlcCE9hOFSW_zbZ7NI-7">
          <mxGeometry relative="1" as="geometry" />
        </mxCell>
        <mxCell id="wUSlcCE9hOFSW_zbZ7NI-5" value="Print: What is your name?" style="rounded=1;whiteSpace=wrap;html=1;" vertex="1" parent="1">
          <mxGeometry x="170" y="280" width="120" height="60" as="geometry" />
        </mxCell>
        <mxCell id="wUSlcCE9hOFSW_zbZ7NI-10" value="" style="edgeStyle=orthogonalEdgeStyle;rounded=0;orthogonalLoop=1;jettySize=auto;html=1;" edge="1" parent="1" source="wUSlcCE9hOFSW_zbZ7NI-7" target="wUSlcCE9hOFSW_zbZ7NI-9">
          <mxGeometry relative="1" as="geometry" />
        </mxCell>
        <mxCell id="wUSlcCE9hOFSW_zbZ7NI-7" value="input : name" style="shape=parallelogram;perimeter=parallelogramPerimeter;whiteSpace=wrap;html=1;fixedSize=1;rounded=1;" vertex="1" parent="1">
          <mxGeometry x="170" y="370" width="120" height="60" as="geometry" />
        </mxCell>
        <mxCell id="wUSlcCE9hOFSW_zbZ7NI-12" value="" style="edgeStyle=orthogonalEdgeStyle;rounded=0;orthogonalLoop=1;jettySize=auto;html=1;" edge="1" parent="1" source="wUSlcCE9hOFSW_zbZ7NI-9" target="wUSlcCE9hOFSW_zbZ7NI-11">
          <mxGeometry relative="1" as="geometry" />
        </mxCell>
        <mxCell id="wUSlcCE9hOFSW_zbZ7NI-9" value="print : Hello Meister name" style="whiteSpace=wrap;html=1;rounded=1;" vertex="1" parent="1">
          <mxGeometry x="170" y="470" width="120" height="60" as="geometry" />
        </mxCell>
        <mxCell id="wUSlcCE9hOFSW_zbZ7NI-11" value="end" style="ellipse;whiteSpace=wrap;html=1;rounded=1;" vertex="1" parent="1">
          <mxGeometry x="190" y="550" width="80" height="80" as="geometry" />
        </mxCell>
        <mxCell id="wUSlcCE9hOFSW_zbZ7NI-13" value="&lt;h1 style=&quot;margin-top: 0px;&quot;&gt;PS Code&lt;/h1&gt;&lt;p&gt;START&lt;/p&gt;&lt;p&gt;&lt;span style=&quot;white-space: pre;&quot;&gt;&#x9;&lt;/span&gt;SET name: null&lt;/p&gt;&lt;p&gt;&lt;span style=&quot;white-space: pre;&quot;&gt;&#x9;&lt;/span&gt;PRINT : what is your name?&lt;br&gt;&lt;/p&gt;&lt;p&gt;&lt;span style=&quot;white-space: pre;&quot;&gt;&#x9;&lt;/span&gt;GET INPUT&lt;br&gt;&lt;/p&gt;&lt;p&gt;&lt;span style=&quot;white-space: pre;&quot;&gt;&#x9;&lt;/span&gt;name = INPUT&lt;br&gt;&lt;/p&gt;&lt;p&gt;&lt;span style=&quot;white-space: pre;&quot;&gt;&#x9;&lt;/span&gt;PRINT : Hello Meister + &lt;span style=&quot;white-space: pre;&quot;&gt;&#x9;&lt;/span&gt;name&lt;br&gt;&lt;/p&gt;&lt;p&gt;END&lt;/p&gt;" style="text;html=1;whiteSpace=wrap;overflow=hidden;rounded=0;" vertex="1" parent="1">
          <mxGeometry x="390" y="220" width="220" height="220" as="geometry" />
        </mxCell>
      </root>
    </mxGraphModel>
  </diagram>
</mxfile>
